<svg width="24" height="26" viewBox="0 0 24 26" fill="none" xmlns="http://www.w3.org/2000/svg">
<path opacity="0.2" d="M1.00003 5V10C1.00002 15.1623 2.84425 18.8492 5.63667 21.3967C5.54784 21.1116 5.50001 20.8123 5.50001 20.5C5.50001 18.4392 7.58213 16.3912 9.7864 15.4845C8.13538 14.668 7.00001 12.9666 7.00001 11C7.00001 8.23858 9.23859 6 12 6C14.7614 6 17 8.23858 17 11C17 12.9294 15.9072 14.6036 14.3067 15.4373C16.4762 16.2196 18.5 17.9683 18.5 20C18.5 20.5947 18.3266 21.1652 18.0269 21.6943C21.0067 19.1391 23 15.3669 23 10V5L12 1L1.00003 5Z" fill="#99CCEE"/>
<path fill-rule="evenodd" clip-rule="evenodd" d="M12.3417 0.0602067C12.121 -0.0200689 11.879 -0.0200689 11.6582 0.0602067L0.658257 4.06021C0.263073 4.20391 6.13947e-06 4.57948 0 4.99999V10C-1.04902e-05 14.46 1.31723 17.9397 3.47691 20.5718C5.6259 23.1909 8.55462 24.9056 11.6838 25.9487C11.889 26.0171 12.1109 26.0171 12.3162 25.9487C15.4453 24.9056 18.3741 23.1909 20.5231 20.5718C22.6827 17.9397 24 14.46 24 10V4.99998C24 4.57948 23.7369 4.20391 23.3417 4.06021L12.3417 0.0602067ZM2 10V5.70043L12 2.06406L22 5.70043V10C22 13.6577 21.0305 16.4796 19.4812 18.6454C19.2667 18.2622 19.0461 17.9162 18.7832 17.5971C18.3277 17.0439 17.7847 16.6154 17.0228 16.1477C16.6416 15.9138 16.2607 15.7267 15.8794 15.5773C17.1767 14.4767 18 12.8345 18 11C18 7.68629 15.3137 5 12 5C8.68629 5 6 7.68629 6 11C6 12.8344 6.82323 14.4766 8.1204 15.5771C7.73896 15.7265 7.35794 15.9137 6.97661 16.1477C6.21469 16.6154 5.67179 17.044 5.21628 17.5971C4.95355 17.9162 4.73296 18.262 4.51856 18.6451C2.96942 16.4793 1.99999 13.6575 2 10ZM5.91518 20.2821C7.58639 21.9371 9.68951 23.1321 12 23.9431C14.3104 23.1321 16.4134 21.9372 18.0846 20.2823C17.7326 19.5924 17.508 19.1947 17.2394 18.8685C16.9746 18.547 16.6312 18.254 15.9766 17.8523C14.8247 17.1452 13.6574 17.0042 12.0859 16.9994C12.0573 16.9998 12.0287 17 12 17C11.9713 17 11.9426 16.9998 11.914 16.9994C10.3424 17.0042 9.1748 17.1452 8.02285 17.8523C7.36828 18.254 7.02492 18.547 6.7602 18.8685C6.49167 19.1946 6.26714 19.5923 5.91518 20.2821ZM12 7C9.79086 7 8 8.79086 8 11C8 13.1848 9.75157 14.9604 11.927 14.9993L11.9998 14.9993L12.0729 14.9993C14.2484 14.9605 16 13.1848 16 11C16 8.79086 14.2091 7 12 7Z" fill="#99CCEE"/>
</svg>
