<svg width="55" height="55" viewBox="0 0 55 55" fill="none" xmlns="http://www.w3.org/2000/svg">
<path d="M43.7402 34.0098C43.8113 33.6812 44.2463 33.6812 44.3174 34.0098C45.374 38.8758 49.2102 42.7029 54.0762 43.7686C54.4047 43.8218 54.4047 44.2747 54.0762 44.3457C49.2102 45.4025 45.3829 49.2385 44.3174 54.1045C44.2463 54.433 43.8113 54.433 43.7402 54.1045C42.6835 49.2384 38.8475 45.4113 33.9814 44.3457C33.6532 44.2923 33.6532 43.8397 33.9814 43.7686C38.8475 42.7119 42.6746 38.8758 43.7402 34.0098ZM22.083 0C23.0687 0 23.9217 0.692176 24.1348 1.66895C26.1238 10.8239 33.3431 18.0432 42.498 20.0322C43.4747 20.2543 44.167 21.0982 44.167 22.1016V22.1191C44.1669 23.1046 43.4747 23.9568 42.498 24.1699C33.3254 26.159 26.1239 33.3605 24.1348 42.5332C23.9305 43.51 23.0687 44.2031 22.083 44.2031C21.0975 44.2029 20.2453 43.5098 20.0322 42.5332C18.0431 33.3783 10.8239 26.159 1.66895 24.1699C0.692357 23.9479 0.00019554 23.1048 0 22.1016C0 21.0982 0.692204 20.2454 1.66895 20.0322C10.8417 18.0432 18.0432 10.8417 20.0322 1.66895C20.2364 0.692325 21.0975 0.000210344 22.083 0ZM22.083 5.47852C19.3658 13.2481 13.2128 19.3844 5.46094 22.1016C13.2303 24.8188 19.3658 30.9542 22.083 38.7236C24.8002 30.9541 30.9543 24.8188 38.7061 22.1016C30.9364 19.3844 24.8002 13.2482 22.083 5.47852ZM36.4951 0.612305C36.5307 0.45256 36.7526 0.4525 36.7881 0.612305C37.3209 3.05419 39.2477 4.96332 41.6719 5.49609C41.8313 5.53179 41.8313 5.75334 41.6719 5.78906C39.23 6.32183 37.3209 8.23104 36.7881 10.6729C36.7526 10.8327 36.5306 10.8327 36.4951 10.6729C35.9623 8.23111 34.0353 6.32197 31.6113 5.78906C31.4515 5.75354 31.4515 5.53161 31.6113 5.49609C34.053 4.96317 35.9624 3.05407 36.4951 0.612305Z" fill="url(#paint0_linear_7903_10597)"/>
<defs>
<linearGradient id="paint0_linear_7903_10597" x1="27.1613" y1="0" x2="27.1613" y2="54.3509" gradientUnits="userSpaceOnUse">
<stop stop-color="#CCE6FE"/>
<stop offset="1" stop-color="#9BC4E8"/>
</linearGradient>
</defs>
</svg>
