<svg width="24" height="21" viewBox="0 0 24 21" fill="none" xmlns="http://www.w3.org/2000/svg">
<path fill-rule="evenodd" clip-rule="evenodd" d="M11 11C11 10.4477 11.4477 10 12 10H23C23.5523 10 24 10.4477 24 11C24 11.5523 23.5523 12 23 12H12C11.4477 12 11 11.5523 11 11Z" fill="#99CCEE"/>
<path fill-rule="evenodd" clip-rule="evenodd" d="M11 3.00001C11 2.44772 11.4477 2.00001 12 2.00001H23C23.5523 2.00001 24 2.44772 24 3.00001C24 3.55229 23.5523 4.00001 23 4.00001H12C11.4477 4.00001 11 3.55229 11 3.00001Z" fill="#99CCEE"/>
<path fill-rule="evenodd" clip-rule="evenodd" d="M11 19C11 18.4477 11.4477 18 12 18H23C23.5523 18 24 18.4477 24 19C24 19.5523 23.5523 20 23 20H12C11.4477 20 11 19.5523 11 19Z" fill="#99CCEE"/>
<path fill-rule="evenodd" clip-rule="evenodd" d="M8.23513 0.322077C8.60954 0.728077 8.58393 1.36072 8.17793 1.73513L3.84043 5.73513C3.45707 6.08867 2.86638 6.08825 2.48352 5.73416L0.32102 3.73416C-0.0844412 3.35916 -0.109141 2.72648 0.265852 2.32102C0.640845 1.91556 1.27353 1.89086 1.67899 2.26585L3.16348 3.6388L6.82208 0.264877C7.22808 -0.109532 7.86072 -0.0839231 8.23513 0.322077Z" fill="#99CCEE"/>
<path d="M4 21C5.10457 21 6 20.1046 6 19C6 17.8954 5.10457 17 4 17C2.89544 17 2 17.8954 2 19C2 20.1046 2.89544 21 4 21Z" fill="#99CCEE"/>
<path d="M4 13C5.10457 13 6 12.1046 6 11C6 9.89544 5.10457 9.00001 4 9.00001C2.89544 9.00001 2 9.89544 2 11C2 12.1046 2.89544 13 4 13Z" fill="#99CCEE"/>
</svg>
