<svg width="72" height="72" viewBox="0 0 72 72" fill="none" xmlns="http://www.w3.org/2000/svg">
<path fill-rule="evenodd" clip-rule="evenodd" d="M9 6.75C7.75736 6.75 6.75 7.75736 6.75 9V63C6.75 64.2426 7.75736 65.25 9 65.25H63C64.2426 65.25 65.25 64.2426 65.25 63V9C65.25 7.75736 64.2426 6.75 63 6.75H9ZM55.8721 19.2483C56.5614 18.2144 56.282 16.8174 55.2481 16.1281C54.2141 15.4388 52.8172 15.7182 52.1279 16.7522L48.2958 22.5002H43.7958L38.6279 30.2522C37.9386 31.2861 38.218 32.6831 39.2519 33.3724C40.2859 34.0616 41.6828 33.7823 42.3721 32.7483L46.2042 27.0002H50.7042L55.8721 19.2483ZM33.75 18.0002C33.75 16.7576 32.7426 15.7502 31.5 15.7502C30.2574 15.7502 29.25 16.7576 29.25 18.0002V31.5002C29.25 32.7429 30.2574 33.7502 31.5 33.7502C32.7426 33.7502 33.75 32.7429 33.75 31.5002V18.0002ZM27 22.5002C27 21.2576 25.9926 20.2502 24.75 20.2502C23.5074 20.2502 22.5 21.2576 22.5 22.5002V31.5002C22.5 32.7429 23.5074 33.7502 24.75 33.7502C25.9926 33.7502 27 32.7429 27 31.5002V22.5002ZM20.25 27.0002C20.25 25.7576 19.2426 24.7502 18 24.7502C16.7574 24.7502 15.75 25.7576 15.75 27.0002V31.5002C15.75 32.7429 16.7574 33.7502 18 33.7502C19.2426 33.7502 20.25 32.7429 20.25 31.5002V27.0002ZM20.8293 38.3174C22.0348 38.016 23.2564 38.749 23.5578 39.9545L24.8193 45.0004C28.9674 45.0193 31.917 46.7353 33.091 47.9092C33.9697 48.7879 33.9697 50.2125 33.091 51.0912C32.2123 51.9699 30.7877 51.9699 29.909 51.0912C29.6349 50.8171 28.2533 49.8422 25.9619 49.5708L26.9328 53.4545C27.2342 54.6601 26.5012 55.8817 25.2957 56.1831C24.0902 56.4844 22.8686 55.7515 22.5672 54.5459L21.4468 50.0644C20.4038 50.4472 19.7676 50.9146 19.591 51.0912C18.7123 51.9699 17.2877 51.9699 16.409 51.0912C15.5303 50.2125 15.5303 48.7879 16.409 47.9092C17.118 47.2003 18.4744 46.2937 20.3513 45.6826L19.1922 41.0459C18.8908 39.8404 19.6238 38.6188 20.8293 38.3174ZM54.466 36.6593C53.9546 36.1478 53.2285 35.9134 52.5146 36.0293C51.8007 36.1451 51.186 36.5971 50.8625 37.244L47.4875 43.994C47.0544 44.8602 47.2242 45.9064 47.909 46.5912C48.5938 47.276 49.64 47.4458 50.5062 47.0127L57.2562 43.6377C57.9031 43.3143 58.3551 42.6996 58.4709 41.9856C58.5868 41.2717 58.3524 40.5457 57.841 40.0343L54.466 36.6593ZM45.7498 43.0057C46.9214 42.5916 47.5355 41.3061 47.1214 40.1345C46.7073 38.9629 45.4218 38.3488 44.2502 38.7629C40.7577 39.9974 38.25 43.3281 38.25 47.2502C38.25 52.2208 42.2794 56.2502 47.25 56.2502C51.1722 56.2502 54.5029 53.7426 55.7373 50.25C56.1514 49.0784 55.5373 47.793 54.3657 47.3788C53.1941 46.9647 51.9086 47.5788 51.4945 48.7504C50.8757 50.5013 49.2058 51.7502 47.25 51.7502C44.7647 51.7502 42.75 49.7355 42.75 47.2502C42.75 45.2944 43.999 43.6245 45.7498 43.0057Z" fill="url(#paint0_linear_4963_8844)"/>
<defs>
<linearGradient id="paint0_linear_4963_8844" x1="16.5629" y1="12.5371" x2="52.4806" y2="55.8774" gradientUnits="userSpaceOnUse">
<stop offset="0.134615" stop-color="#9CC4E8"/>
<stop offset="0.389423" stop-color="#99CCEE"/>
<stop offset="0.5625" stop-color="#99CCEE"/>
<stop offset="1" stop-color="#CBE6FE"/>
</linearGradient>
</defs>
</svg>
