<svg width="72" height="72" viewBox="0 0 72 72" fill="none" xmlns="http://www.w3.org/2000/svg">
<path opacity="0.2" d="M19.6031 61.3969C19.3938 61.6095 19.1442 61.7783 18.869 61.8935C18.5938 62.0088 18.2984 62.0681 18 62.0681C17.7016 62.0681 17.4062 62.0088 17.131 61.8935C16.8558 61.7783 16.6062 61.6095 16.3969 61.3969L10.6031 55.6031C10.3905 55.3938 10.2217 55.1442 10.1065 54.869C9.99123 54.5938 9.93188 54.2984 9.93188 54C9.93188 53.7016 9.99123 53.4062 10.1065 53.131C10.2217 52.8558 10.3905 52.6062 10.6031 52.3969L40.5 22.5L49.5 31.5L19.6031 61.3969Z" fill="url(#paint0_linear_4963_8852)"/>
<path fill-rule="evenodd" clip-rule="evenodd" d="M50.8414 8.99282C52.5988 7.23547 55.448 7.23546 57.2054 8.99282L63.0225 14.8099C64.7798 16.5672 64.7798 19.4165 63.0225 21.1738L21.1993 62.997C19.4419 64.7544 16.5927 64.7544 14.8353 62.997L9.01828 57.1799C7.26092 55.4226 7.26092 52.5733 9.01828 50.816L38.7562 21.0781C38.8038 21.0199 38.8547 20.9635 38.909 20.9092C38.9633 20.8549 39.0197 20.8039 39.0779 20.7563L50.8414 8.99282ZM40.508 25.6902L12.2003 53.998L18.0173 59.815L46.3251 31.5072L40.508 25.6902ZM49.5071 28.3252L43.69 22.5082L54.0234 12.1748L59.8405 17.9919L49.5071 28.3252ZM23.625 9.00016C24.8677 9.00016 25.875 10.0075 25.875 11.2502V14.6252H29.25C30.4927 14.6252 31.5 15.6325 31.5 16.8752C31.5 18.1178 30.4927 19.1252 29.25 19.1252H25.875V22.5002C25.875 23.7428 24.8677 24.7502 23.625 24.7502C22.3824 24.7502 21.375 23.7428 21.375 22.5002V19.1252H18C16.7574 19.1252 15.75 18.1178 15.75 16.8752C15.75 15.6325 16.7574 14.6252 18 14.6252H21.375V11.2502C21.375 10.0075 22.3824 9.00016 23.625 9.00016ZM60.75 33.7502C61.9927 33.7502 63 34.7575 63 36.0002V40.5002H67.5C68.7427 40.5002 69.75 41.5075 69.75 42.7502C69.75 43.9928 68.7427 45.0002 67.5 45.0002H63V49.5002C63 50.7428 61.9927 51.7502 60.75 51.7502C59.5074 51.7502 58.5 50.7428 58.5 49.5002V45.0002H54C52.7574 45.0002 51.75 43.9928 51.75 42.7502C51.75 41.5075 52.7574 40.5002 54 40.5002H58.5V36.0002C58.5 34.7575 59.5074 33.7502 60.75 33.7502ZM47.25 49.5002C48.4927 49.5002 49.5 50.5075 49.5 51.7502V54.0002H51.75C52.9927 54.0002 54 55.0075 54 56.2502C54 57.4928 52.9927 58.5002 51.75 58.5002H49.5V60.7502C49.5 61.9928 48.4927 63.0002 47.25 63.0002C46.0074 63.0002 45 61.9928 45 60.7502V58.5002H42.75C41.5074 58.5002 40.5 57.4928 40.5 56.2502C40.5 55.0075 41.5074 54.0002 42.75 54.0002H45V51.7502C45 50.5075 46.0074 49.5002 47.25 49.5002Z" fill="url(#paint1_linear_4963_8852)"/>
<defs>
<linearGradient id="paint0_linear_4963_8852" x1="16.5691" y1="26.4143" x2="40.8631" y2="55.7287" gradientUnits="userSpaceOnUse">
<stop offset="0.134615" stop-color="#9CC4E8"/>
<stop offset="0.389423" stop-color="#99CCEE"/>
<stop offset="0.5625" stop-color="#99CCEE"/>
<stop offset="1" stop-color="#CBE6FE"/>
</linearGradient>
<linearGradient id="paint1_linear_4963_8852" x1="18.1086" y1="13.2779" x2="52.1651" y2="58.2972" gradientUnits="userSpaceOnUse">
<stop offset="0.134615" stop-color="#9CC4E8"/>
<stop offset="0.389423" stop-color="#99CCEE"/>
<stop offset="0.5625" stop-color="#99CCEE"/>
<stop offset="1" stop-color="#CBE6FE"/>
</linearGradient>
</defs>
</svg>
