<svg width="66" height="28" viewBox="0 0 66 28" fill="none" xmlns="http://www.w3.org/2000/svg">
  <g transform="scale(0.3538)">
    <path fill-rule="evenodd" clip-rule="evenodd" d="M26.4525 40.7907C26.6084 40.2749 26.6923 39.7352 26.6683 39.2075C26.6084 37.5044 25.6729 35.9572 24.1856 35.1176L7.40642 25.5347C5.04365 24.1914 2.02123 24.9829 0.665942 27.3337C-0.701344 29.6725 0.102236 32.6469 2.47699 34.0022L11.8561 39.3634L2.47699 44.7126C0.150211 46.0199 -0.68935 48.9824 0.62996 51.3212C0.641954 51.3452 0.653948 51.3691 0.677935 51.3931C2.06921 53.7319 5.06764 54.5235 7.41841 53.1802L24.1976 43.5852C25.337 42.9496 26.1046 41.9301 26.4525 40.7907ZM30.9981 49.774C30.0026 49.69 28.9951 49.9179 28.1316 50.4096L11.3404 59.9806C9.00158 61.3 8.18601 64.2744 9.50532 66.6132C9.50532 66.6372 9.52931 66.6492 9.5413 66.6731C10.9326 69.0119 13.931 69.8035 16.2818 68.4482L25.6849 63.087V73.8094C25.6849 76.52 27.8917 78.7029 30.6263 78.7029C33.3608 78.7029 35.5677 76.508 35.5677 73.8094V54.6434C35.5677 52.0648 33.5647 49.9419 30.9981 49.774ZM48.1971 28.9289C49.1566 29.0128 50.1641 28.8089 51.0636 28.2932L67.8428 18.7102C70.1816 17.3909 70.9972 14.4285 69.6899 12.0897C69.6899 12.0657 69.6659 12.0537 69.6539 12.0297C68.2746 9.69093 65.2642 8.88735 62.9134 10.2426L53.5103 15.6158V4.89344C53.5103 2.19485 51.3035 0.0119937 48.5689 0.0119937C45.8343 0.0119937 43.6275 2.20685 43.6275 4.89344V24.0594C43.6275 26.6381 45.6304 28.749 48.1971 28.9409V28.9289ZM11.3404 18.7102L28.1316 28.2932C29.0311 28.8089 30.0386 29.0128 30.9981 28.9289C33.5647 28.749 35.5557 26.6261 35.5677 24.0474V4.88145C35.5677 2.18286 33.3489 0 30.6263 0C27.9037 0 25.6849 2.19485 25.6849 4.88145V15.6038L16.2818 10.2307C13.919 8.87536 10.9206 9.67894 9.5413 12.0177C8.18601 14.3325 8.9656 17.307 11.2684 18.6622C11.2924 18.6742 11.3164 18.6862 11.3404 18.6982V18.7102ZM42.8959 39.3154C42.8719 38.9916 42.7399 38.6798 42.5241 38.4399L40.5091 36.4489C40.2692 36.2331 39.9574 36.1011 39.6336 36.0891H39.5496C39.2258 36.1011 38.9259 36.2331 38.6861 36.4489L36.6711 38.4399C36.4552 38.6798 36.3353 38.9916 36.3233 39.3154V39.3994C36.3233 39.6753 36.4792 40.0591 36.6711 40.263L38.6861 42.2659C38.89 42.4578 39.2738 42.6257 39.5496 42.6257H39.6336C39.9574 42.6017 40.2692 42.4818 40.5091 42.2659L42.5241 40.263C42.7399 40.0231 42.8719 39.7232 42.8959 39.3994V39.3154ZM48.4729 41.2344L41.4926 48.1308C41.2527 48.3587 40.9409 48.4787 40.6171 48.5026H38.5661C38.2423 48.4787 37.9305 48.3587 37.6906 48.1308L30.7102 41.2344C30.4943 40.9946 30.3624 40.6947 30.3504 40.3709V38.344C30.3624 38.0201 30.4943 37.7083 30.7102 37.4684L37.6786 30.572C37.9185 30.3561 38.2303 30.2242 38.5541 30.2122H40.6051C40.9289 30.2242 41.2407 30.3561 41.4806 30.572L48.461 37.4684C48.6768 37.7083 48.8088 38.0201 48.8208 38.344V40.3709C48.8208 40.6468 48.6649 41.0305 48.461 41.2344H48.4729ZM67.8428 59.9806L51.0636 50.4096C50.2 49.9059 49.2046 49.69 48.1971 49.774C45.6304 49.9419 43.6395 52.0648 43.6275 54.6434V73.8214C43.6275 76.532 45.8343 78.7148 48.5689 78.7148C51.3035 78.7148 53.5103 76.52 53.5103 73.8214V63.099L62.9134 68.4602C65.2642 69.8155 68.2746 69.0239 69.6539 66.6731C71.0212 64.3344 70.2176 61.3359 67.8428 59.9806ZM76.7182 33.9902L67.3391 39.3514L76.7182 44.7006C79.045 46.008 79.8725 48.9704 78.5652 51.3092C78.5532 51.3332 78.5412 51.3572 78.5172 51.3811C77.126 53.7199 74.1275 54.5115 71.7768 53.1682L54.9855 43.5732C53.9061 42.9615 53.1025 41.9661 52.7427 40.7787C52.5748 40.263 52.5028 39.7232 52.5148 39.1955C52.5268 38.8117 52.5868 38.4279 52.6828 38.0441C53.0186 36.8567 53.7982 35.7773 54.9736 35.1056L71.7648 25.5227C74.1275 24.1674 77.126 24.9709 78.5052 27.3217C79.8845 29.6605 79.081 32.6349 76.7062 33.9902H76.7182Z" fill="#29B5E8"/>
  </g>
  <g transform="translate(6,0)">
    <path fill-rule="evenodd" clip-rule="evenodd" d="M31 10.252H33.3686C33.8799 10.252 34.3625 10.351 34.816 10.5489C35.2697 10.747 35.6675 11.0171 36.0096 11.3592C36.3516 11.7013 36.6215 12.0991 36.8198 12.5525C36.9411 12.8306 37.0249 13.1195 37.0719 13.4193C37.1864 12.6348 37.5396 11.946 38.132 11.3537C38.8521 10.6191 39.734 10.252 40.7782 10.252C41.8152 10.252 42.6972 10.6191 43.4247 11.3537C43.9609 11.8849 44.3022 12.4934 44.4508 13.179V10.252L48.1986 13.9999L51.9577 10.252V13.175C52.1052 12.4911 52.4432 11.8836 52.973 11.3537C53.6932 10.6191 54.5754 10.252 55.6197 10.252C56.6566 10.252 57.5383 10.6191 58.2658 11.3537C58.5754 11.6601 58.8194 11.9932 59 12.3512V0H31V10.252V10.252ZM55.6197 17.748C54.5826 17.748 53.7004 17.3809 52.973 16.6462C52.4431 16.1215 52.1052 15.5155 51.9576 14.8293V17.7479H50.6936V13.2654L48.1986 15.7712L45.6931 13.2654V17.748H44.4508V14.8296C44.3022 15.5197 43.9609 16.1256 43.4247 16.6462C42.6972 17.3808 41.8153 17.748 40.7782 17.748C39.7415 17.748 38.8593 17.3809 38.1321 16.6462C37.539 16.0593 37.1859 15.3711 37.0716 14.5825C37.0244 14.8815 36.9408 15.1699 36.8198 15.4473C36.6215 15.901 36.3534 16.299 36.015 16.6408C35.6766 16.9829 35.2788 17.2529 34.8214 17.4508C34.3641 17.6492 33.8799 17.748 33.3686 17.748H31V27.9999H59V15.659C58.8194 16.0162 58.5754 16.3457 58.2658 16.6462C57.5383 17.3809 56.6566 17.748 55.6197 17.748V17.748ZM35.1344 15.7607C35.3615 15.5301 35.5397 15.2639 35.6692 14.9613C35.799 14.6587 35.8637 14.3386 35.8637 13.9999C35.8637 13.6617 35.799 13.3411 35.6692 13.0388C35.5397 12.7362 35.3596 12.4699 35.1293 12.2393C34.8986 12.0089 34.6322 11.8289 34.3298 11.6994C34.0275 11.5696 33.7069 11.5049 33.3684 11.5049H32.1155V16.4951H33.3684C33.7141 16.4951 34.0384 16.4304 34.3407 16.3006C34.643 16.1711 34.9077 15.9911 35.1344 15.7607V15.7607ZM57.3802 15.7713C57.8698 15.2744 58.1148 14.6843 58.1148 13.9999C58.1148 13.316 57.8698 12.7292 57.3802 12.2393C56.8906 11.7497 56.304 11.5049 55.6199 11.5049C54.9358 11.5049 54.3451 11.7497 53.8483 12.2393C53.3659 12.7292 53.1249 13.316 53.1249 13.9999C53.1249 14.6842 53.3659 15.2744 53.8483 15.7713C54.3451 16.254 54.9358 16.4952 55.6199 16.4952C56.304 16.4952 56.8906 16.254 57.3802 15.7713V15.7713ZM42.5391 15.7713C43.0287 15.2744 43.2735 14.6843 43.2735 13.9999C43.2735 13.316 43.0287 12.7292 42.5391 12.2393C42.0492 11.7497 41.4624 11.5049 40.7782 11.5049C40.0941 11.5049 39.5037 11.7497 39.0068 12.2393C38.5244 12.7292 38.2833 13.316 38.2833 13.9999C38.2833 14.6842 38.5244 15.2744 39.0068 15.7713C39.5037 16.254 40.0941 16.4952 40.7782 16.4952C41.4624 16.4952 42.0493 16.254 42.5391 15.7713V15.7713Z" fill="#99CCEE"/>
  </g>
</svg>
