<svg width="103" height="101" viewBox="0 0 103 101" fill="none" xmlns="http://www.w3.org/2000/svg">
<path d="M13.5825 67.9035L46.8644 16.5088L89.1237 43.9267L74.0306 86.0748L13.5825 67.9035Z" stroke="#2CB3EA" stroke-width="4.68182" stroke-miterlimit="10"/>
<path d="M46.8639 30.0911C54.3657 30.0911 60.447 24.0097 60.447 16.5079C60.447 9.00619 54.3657 2.9248 46.8639 2.9248C39.3622 2.9248 33.2808 9.00619 33.2808 16.5079C33.2808 24.0097 39.3622 30.0911 46.8639 30.0911Z" fill="#F8F9FB" stroke="#2CB3EA" stroke-width="5.85227" stroke-miterlimit="10"/>
<path d="M89.1239 57.511C96.6259 57.511 102.707 51.4296 102.707 43.9279C102.707 36.4261 96.6259 30.3447 89.1239 30.3447C81.6224 30.3447 75.5408 36.4261 75.5408 43.9279C75.5408 51.4296 81.6224 57.511 89.1239 57.511Z" fill="#2CB3EA"/>
<path d="M74.0306 99.6584C81.5327 99.6584 87.6138 93.5773 87.6138 86.0753C87.6138 78.5739 81.5327 72.4922 74.0306 72.4922C66.5292 72.4922 60.4475 78.5739 60.4475 86.0753C60.4475 93.5773 66.5292 99.6584 74.0306 99.6584Z" fill="#2CB3EA"/>
<path d="M13.5831 81.4864C21.0849 81.4864 27.1663 75.4053 27.1663 67.9033C27.1663 60.4018 21.0849 54.3203 13.5831 54.3203C6.08139 54.3203 0 60.4018 0 67.9033C0 75.4053 6.08139 81.4864 13.5831 81.4864Z" fill="#2CB3EA"/>
</svg>
