<svg width="77" height="48" viewBox="0 0 77 48" fill="none" xmlns="http://www.w3.org/2000/svg">
<path d="M69.5576 0C73.2537 0 76.25 2.99632 76.25 6.69238V41.3076C76.25 45.0037 73.2537 48 69.5576 48H34.25C30.6601 48 27.75 45.0899 27.75 41.5C27.75 40.6716 28.4216 40 29.25 40C30.0784 40 30.75 40.6716 30.75 41.5C30.75 43.433 32.317 45 34.25 45H69.5576C71.5968 45 73.25 43.3468 73.25 41.3076V6.69238C73.25 4.65318 71.5968 3 69.5576 3H33.75C32.0931 3 30.75 4.34315 30.75 6C30.75 6.82843 30.0784 7.5 29.25 7.5C28.4216 7.5 27.75 6.82843 27.75 6C27.75 2.68629 30.4363 0 33.75 0H69.5576ZM60.0127 33.3945C61.0008 33.3945 61.8025 34.1955 61.8027 35.1836V39.6572L61.793 39.8408C61.7074 40.6828 61.0383 41.3519 60.1963 41.4375L60.0127 41.4473H55.5391L55.3564 41.4375C54.4541 41.3458 53.75 40.5837 53.75 39.6572V35.1836C53.7503 34.1956 54.5511 33.3948 55.5391 33.3945H60.0127ZM68.96 33.3945C69.9481 33.3945 70.7497 34.1955 70.75 35.1836V39.6572L70.7402 39.8408C70.6546 40.6828 69.9856 41.3519 69.1436 41.4375L68.96 41.4473H64.4863L64.3037 41.4375C63.4014 41.3458 62.6973 40.5837 62.6973 39.6572V35.1836C62.6975 34.1957 63.4984 33.3948 64.4863 33.3945H68.96ZM64.4863 39.6572H68.96V35.1836H64.4863V39.6572ZM55.5391 39.6572H60.0127V35.1836H55.5391V39.6572ZM32.75 31.25C33.4404 31.25 34 31.8096 34 32.5C34 33.1904 33.4404 33.75 32.75 33.75H18.75C18.0596 33.75 17.5 33.1904 17.5 32.5C17.5 31.8096 18.0596 31.25 18.75 31.25H32.75ZM46.75 31.25C47.4404 31.25 48 31.8096 48 32.5C48 33.1904 47.4404 33.75 46.75 33.75H38.75C38.0596 33.75 37.5 33.1904 37.5 32.5C37.5 31.8096 38.0596 31.25 38.75 31.25H46.75ZM60.0127 24.4473C61.0009 24.4473 61.8025 25.2482 61.8027 26.2363V30.71L61.793 30.8936C61.7074 31.7356 61.0383 32.4046 60.1963 32.4902L60.0127 32.5H55.5391L55.3564 32.4902C54.4541 32.3985 53.75 31.6365 53.75 30.71V26.2363C53.7502 25.2484 54.5511 24.4475 55.5391 24.4473H60.0127ZM68.96 24.4473C69.9481 24.4473 70.7498 25.2482 70.75 26.2363V30.71L70.7402 30.8936C70.6546 31.7356 69.9856 32.4046 69.1436 32.4902L68.96 32.5H64.4863L64.3037 32.4902C63.4014 32.3985 62.6973 31.6364 62.6973 30.71V26.2363C62.6975 25.2484 63.4984 24.4475 64.4863 24.4473H68.96ZM55.5391 30.71H60.0127V26.2363H55.5391V30.71ZM64.4863 30.71H68.96V26.2363H64.4863V30.71ZM23.75 25.25C24.4404 25.25 25 25.8096 25 26.5C25 27.1904 24.4404 27.75 23.75 27.75H9.75C9.05964 27.75 8.5 27.1904 8.5 26.5C8.5 25.8096 9.05964 25.25 9.75 25.25H23.75ZM48.75 25.25C49.4404 25.25 50 25.8096 50 26.5C50 27.1904 49.4404 27.75 48.75 27.75H29.75C29.0596 27.75 28.5 27.1904 28.5 26.5C28.5 25.8096 29.0596 25.25 29.75 25.25H48.75ZM60.0127 15.5C61.0009 15.5 61.8025 16.301 61.8027 17.2891V21.7627L61.793 21.9463C61.7073 22.7883 61.0383 23.4574 60.1963 23.543L60.0127 23.5527H55.5391L55.3564 23.543C54.4542 23.4513 53.75 22.6892 53.75 21.7627V17.2891C53.7502 16.3011 54.5511 15.5002 55.5391 15.5H60.0127ZM68.96 15.5C69.9481 15.5 70.7498 16.301 70.75 17.2891V21.7627L70.7402 21.9463C70.6546 22.7883 69.9856 23.4574 69.1436 23.543L68.96 23.5527H64.4863L64.3037 23.543C63.4014 23.4513 62.6973 22.6891 62.6973 21.7627V17.2891C62.6975 16.3011 63.4984 15.5003 64.4863 15.5H68.96ZM55.5391 21.7627H60.0127V17.2891H55.5391V21.7627ZM64.4863 21.7627H68.96V17.2891H64.4863V21.7627ZM7.25 19.25C7.94036 19.25 8.5 19.8096 8.5 20.5C8.5 21.1904 7.94036 21.75 7.25 21.75H1.25C0.559644 21.75 -1.29386e-09 21.1904 0 20.5C6.03528e-08 19.8096 0.559644 19.25 1.25 19.25H7.25ZM35.75 19.25C36.4404 19.25 37 19.8096 37 20.5C37 21.1904 36.4404 21.75 35.75 21.75H12.75C12.0596 21.75 11.5 21.1904 11.5 20.5C11.5 19.8096 12.0596 19.25 12.75 19.25H35.75ZM43.75 19.25C44.4404 19.25 45 19.8096 45 20.5C45 21.1904 44.4404 21.75 43.75 21.75H40.75C40.0596 21.75 39.5 21.1904 39.5 20.5C39.5 19.8096 40.0596 19.25 40.75 19.25H43.75ZM15.25 13.25C15.9404 13.25 16.5 13.8096 16.5 14.5C16.5 15.1904 15.9404 15.75 15.25 15.75H5.75C5.05964 15.75 4.5 15.1904 4.5 14.5C4.5 13.8096 5.05964 13.25 5.75 13.25H15.25ZM30.25 13.25C30.9404 13.25 31.5 13.8096 31.5 14.5C31.5 15.1904 30.9404 15.75 30.25 15.75H20.75C20.0596 15.75 19.5 15.1904 19.5 14.5C19.5 13.8096 20.0596 13.25 20.75 13.25H30.25ZM45.25 13.25C45.9404 13.25 46.5 13.8096 46.5 14.5C46.5 15.1904 45.9404 15.75 45.25 15.75H35.75C35.0596 15.75 34.5 15.1904 34.5 14.5C34.5 13.8096 35.0596 13.25 35.75 13.25H45.25ZM60.0127 6.55273C61.0009 6.55273 61.8025 7.35369 61.8027 8.3418V12.8154L61.793 12.999C61.7073 13.841 61.0383 14.5101 60.1963 14.5957L60.0127 14.6055H55.5391L55.3564 14.5957C54.4542 14.504 53.75 13.7419 53.75 12.8154V8.3418C53.7502 7.35382 54.5511 6.55296 55.5391 6.55273H60.0127ZM68.96 6.55273C69.9481 6.55273 70.7498 7.35369 70.75 8.3418V12.8154L70.7402 12.999C70.6546 13.841 69.9855 14.5101 69.1436 14.5957L68.96 14.6055H64.4863L64.3037 14.5957C63.4015 14.504 62.6973 13.7419 62.6973 12.8154V8.3418C62.6975 7.35384 63.4984 6.55299 64.4863 6.55273H68.96ZM55.5391 12.8154H60.0127V8.3418H55.5391V12.8154ZM64.4863 12.8154H68.96V8.3418H64.4863V12.8154Z" fill="#279CC7"/>
</svg>
