<svg width="72" height="72" viewBox="0 0 72 72" fill="none" xmlns="http://www.w3.org/2000/svg">
<path d="M62.325 48.7408C64.2589 44.7726 65.2594 40.4145 65.25 36.0002C65.2413 29.5572 63.1096 23.2967 59.1847 18.1872C55.2597 13.0777 49.7604 9.404 43.5375 7.73453H43.3969C38.8339 6.53318 34.0477 6.45576 29.4483 7.50888C24.8488 8.56201 20.5732 10.7143 16.9875 13.7814L16.6219 14.1189C12.1696 18.0483 9.02016 23.2409 7.59294 29.005C6.16573 34.7692 6.52851 40.8314 8.63297 46.3843C10.7374 51.9371 14.4837 56.717 19.3728 60.0874C24.2619 63.4578 30.0618 65.2586 36 65.2501H36.675C41.9861 65.1189 47.1618 63.5478 51.6497 60.7045C56.1375 57.8612 59.7689 53.8525 62.1563 49.1064V49.1064L62.325 48.7408ZM60.75 36.0002C60.7449 38.9467 60.2213 41.8694 59.2031 44.6345L46.1531 36.6189C45.6148 36.2805 45.0109 36.0601 44.3813 35.972L37.9688 35.1283C37.1451 35.0218 36.308 35.1439 35.549 35.4812C34.7901 35.8185 34.1385 36.358 33.6656 37.0408H31.2469L30.1781 34.8189C29.8787 34.2053 29.4453 33.6669 28.9098 33.2433C28.3743 32.8198 27.7504 32.522 27.0844 32.372L25.2281 31.9783L25.9313 30.3189C26.1064 29.9116 26.3966 29.5642 26.7663 29.3194C27.136 29.0746 27.5691 28.943 28.0125 28.9408H32.5406C33.2982 28.9374 34.0428 28.744 34.7063 28.3783L38.1375 26.4658C38.4403 26.3016 38.7234 26.1035 38.9813 25.8752L46.5469 19.0126C47.2055 18.4352 47.6774 17.675 47.9028 16.8286C48.1282 15.9823 48.0967 15.088 47.8125 14.2595C51.7251 16.3846 54.992 19.5257 57.2689 23.3519C59.5459 27.1781 60.7485 31.5477 60.75 36.0002ZM11.25 36.0002C11.2436 32.1192 12.1594 28.2922 13.9219 24.8345L16.8469 32.6814C17.1144 33.3842 17.5527 34.0094 18.1223 34.5004C18.6919 34.9915 19.3748 35.3329 20.1094 35.4939L21.6563 35.8314H21.6844L25.0594 36.5627C25.3934 36.6302 25.7072 36.7747 25.9757 36.9846C26.2442 37.1945 26.4601 37.4641 26.6063 37.772L27.1969 39.0095C27.569 39.7669 28.1454 40.4053 28.861 40.8525C29.5766 41.2998 30.403 41.5382 31.2469 41.5408H31.5844L29.4188 46.3783C29.0528 47.1807 28.9323 48.0735 29.0724 48.9442C29.2126 49.815 29.607 50.6249 30.2063 51.272L34.7344 56.1658C34.9675 56.4265 35.1391 56.7362 35.2365 57.0721C35.3338 57.408 35.3545 57.7615 35.2969 58.1064L34.7906 60.722C28.4456 60.4047 22.4648 57.6624 18.0839 53.0617C13.7029 48.4609 11.2565 42.3531 11.25 36.0002V36.0002Z" fill="url(#paint0_linear_4963_8868)"/>
<defs>
<linearGradient id="paint0_linear_4963_8868" x1="16.5516" y1="12.5574" x2="52.4515" y2="55.9029" gradientUnits="userSpaceOnUse">
<stop offset="0.134615" stop-color="#9CC4E8"/>
<stop offset="0.389423" stop-color="#99CCEE"/>
<stop offset="0.5625" stop-color="#99CCEE"/>
<stop offset="1" stop-color="#CBE6FE"/>
</linearGradient>
</defs>
</svg>
