<svg width="54" height="54" viewBox="0 0 54 54" fill="none" xmlns="http://www.w3.org/2000/svg">
<path d="M29.25 2.25C29.25 1.00736 28.2426 0 27 0C25.7574 0 24.75 1.00736 24.75 2.25V24.9735L4.5 46.1878L4.5 40.5C4.5 39.2574 3.49264 38.25 2.25 38.25C1.00736 38.25 0 39.2574 0 40.5V51.75C0 52.9926 1.00736 54 2.25 54H13.5C14.7426 54 15.75 52.9926 15.75 51.75C15.75 50.5074 14.7426 49.5 13.5 49.5H7.55937L28.6276 27.4286C29.0271 27.01 29.25 26.4536 29.25 25.875V2.25Z" fill="url(#paint0_linear_7902_549)"/>
<path d="M35.341 32.159C34.4623 31.2803 33.0377 31.2803 32.159 32.159C31.2803 33.0377 31.2803 34.4623 32.159 35.341L46.318 49.5H40.5C39.2574 49.5 38.25 50.5074 38.25 51.75C38.25 52.9926 39.2574 54 40.5 54H51.75C52.9926 54 54 52.9926 54 51.75V40.5C54 39.2574 52.9926 38.25 51.75 38.25C50.5074 38.25 49.5 39.2574 49.5 40.5V46.318L35.341 32.159Z" fill="url(#paint1_linear_7902_549)"/>
<defs>
<linearGradient id="paint0_linear_7902_549" x1="9.05806" y1="5.34194" x2="42.2129" y2="45.3484" gradientUnits="userSpaceOnUse">
<stop offset="0.134615" stop-color="#333333"/>
<stop offset="0.389423" stop-color="#333333"/>
<stop offset="0.5625" stop-color="#333333"/>
<stop offset="1" stop-color="#666666"/>
</linearGradient>
<linearGradient id="paint1_linear_7902_549" x1="9.05806" y1="5.34194" x2="42.2129" y2="45.3484" gradientUnits="userSpaceOnUse">
<stop offset="0.134615" stop-color="#333333"/>
<stop offset="0.389423" stop-color="#333333"/>
<stop offset="0.5625" stop-color="#333333"/>
<stop offset="1" stop-color="#666666"/>
</linearGradient>
</defs>
</svg>
