<svg width="27" height="27" viewBox="0 0 27 27" fill="none" xmlns="http://www.w3.org/2000/svg">
<path opacity="0.2" d="M23.5 14.5L16.325 21.675C15.9545 22.0469 15.5143 22.342 15.0295 22.5433C14.5447 22.7447 14.0249 22.8483 13.5 22.8483C12.9751 22.8483 12.4553 22.7447 11.9705 22.5433C11.4857 22.342 11.0455 22.0469 10.675 21.675L5.325 16.325C4.9531 15.9545 4.65801 15.5143 4.45666 15.0295C4.25531 14.5447 4.15166 14.0249 4.15166 13.5C4.15166 12.9751 4.25531 12.4553 4.45666 11.9705C4.65801 11.4857 4.9531 11.0455 5.325 10.675L12.5 3.5L23.5 14.5Z" fill="#99CCEE"/>
<path fill-rule="evenodd" clip-rule="evenodd" d="M20.7071 1.70711C21.0976 1.31658 21.0976 0.683418 20.7071 0.292893C20.3166 -0.0976311 19.6834 -0.0976311 19.2929 0.292893L15 4.58579L11.7071 1.29289C11.3166 0.902369 10.6834 0.902369 10.2929 1.29289C9.90237 1.68342 9.90237 2.31658 10.2929 2.70711L11.0858 3.49997L4.61859 9.96714C4.15371 10.4304 3.78483 10.9808 3.5331 11.5869C3.28125 12.1933 3.15161 12.8434 3.15161 13.5C3.15161 14.1566 3.28125 14.8067 3.5331 15.4131C3.78482 16.0191 4.15437 16.5702 4.6192 17.0335L6.58576 19L0.292893 25.2929C-0.0976311 25.6834 -0.0976311 26.3166 0.292893 26.7071C0.683417 27.0976 1.31658 27.0976 1.70711 26.7071L7.99997 20.4142L9.96713 22.3814C10.4304 22.8463 10.9808 23.2151 11.5869 23.4668C12.1932 23.7187 12.8434 23.8483 13.4999 23.8483C14.1565 23.8483 14.8066 23.7187 15.413 23.4668C16.019 23.2151 16.5694 22.8463 17.0326 22.3815L17.0334 22.3807L23.5 15.9142L24.2929 16.7071C24.6834 17.0976 25.3166 17.0976 25.7071 16.7071C26.0976 16.3166 26.0976 15.6834 25.7071 15.2929L22.4142 12L26.7071 7.70711C27.0976 7.31658 27.0976 6.68342 26.7071 6.29289C26.3166 5.90237 25.6834 5.90237 25.2929 6.29289L21 10.5858L16.4142 6L20.7071 1.70711ZM12.5 4.91419L6.03069 11.3835C5.75206 11.661 5.53098 11.9909 5.38012 12.3541C5.22927 12.7173 5.15161 13.1067 5.15161 13.5C5.15161 13.8933 5.22927 14.2827 5.38012 14.6459C5.53098 15.0091 5.75206 15.339 6.03069 15.6165L6.03205 15.6179L8.70081 18.2867L8.70711 18.2929L8.71334 18.2992L11.3834 20.9693C11.661 21.2479 11.9908 21.469 12.354 21.6198C12.7172 21.7707 13.1067 21.8483 13.4999 21.8483C13.8932 21.8483 14.2827 21.7707 14.6459 21.6198C15.0091 21.469 15.3389 21.2479 15.6165 20.9693L15.6178 20.9679L22.0858 14.5L12.5 4.91419Z" fill="#99CCEE"/>
</svg>
