<svg width="27" height="24" viewBox="0 0 27 24" fill="none" xmlns="http://www.w3.org/2000/svg">
<g opacity="0.2">
<path d="M7 8.5H2C1.4 8.5 1 8.9 1 9.5L1 14.5C1 15.1 1.4 15.5 2 15.5H7C7.6 15.5 8 15.1 8 14.5V9.5C8 8.9 7.6 8.5 7 8.5Z" fill="#99CCEE"/>
<path d="M25 1L19 1C18.4 1 18 1.4 18 2V8C18 8.6 18.4 9 19 9L25 9C25.6 9 26 8.6 26 8V2C26 1.4 25.6 1 25 1Z" fill="#99CCEE"/>
<path d="M25 15H19C18.4 15 18 15.4 18 16V22C18 22.6 18.4 23 19 23H25C25.6 23 26 22.6 26 22V16C26 15.4 25.6 15 25 15Z" fill="#99CCEE"/>
</g>
<path d="M25 24H19C17.9 24 17 23.1 17 22V20H16C15.5 20 15 19.9 14.5 19.7C14 19.5 13.6 19.2 13.2 18.8C12.8 18.4 12.5 18 12.3 17.5C12.1 17 12 16.5 12 16L12 13H9V14.5C9 15.6 8.1 16.5 7 16.5H2C0.9 16.5 0 15.6 0 14.5L0 9.5C0 8.4 0.9 7.5 2 7.5H7C8.1 7.5 9 8.4 9 9.5V11H12V8C12 7.5 12.1 7 12.3 6.5C12.5 6 12.8 5.6 13.2 5.2C13.6 4.8 14 4.5 14.5 4.3C15 4.1 15.5 4 16 4H17V2C17 0.9 17.9 0 19 0L25 0C26.1 0 27 0.9 27 2V8C27 9.1 26.1 10 25 10H19C17.9 10 17 9.1 17 8V6H16C15.7 6 15.5 6 15.2 6.1C15 6.2 14.7 6.3 14.6 6.5C14.5 6.7 14.3 6.9 14.2 7.1C14 7.5 14 7.7 14 8V12L14 16C14 16.3 14 16.5 14.1 16.8C14.2 17 14.3 17.3 14.5 17.4C14.7 17.6 14.9 17.7 15.1 17.8C15.5 18 15.8 18 16 18H17V16C17 14.9 17.9 14 19 14H25C26.1 14 27 14.9 27 16V22C27 23.1 26.1 24 25 24ZM19 19V22H25V16H19V19ZM2 9.5L2 14.5H7V9.5H2ZM19 5V8L25 8V2L19 2V5Z" fill="#99CCEE"/>
</svg>
