<svg width="72" height="72" viewBox="0 0 72 72" fill="none" xmlns="http://www.w3.org/2000/svg">
<path fill-rule="evenodd" clip-rule="evenodd" d="M41.518 16.1424L35.9879 21.6724C35.1092 22.5511 33.6846 22.5511 32.8059 21.6724C31.9272 20.7938 31.9272 19.3691 32.8059 18.4905L38.3746 12.9217C38.3992 12.8971 38.4243 12.8732 38.45 12.8498C41.2354 10.311 44.892 8.94307 48.6598 9.0303C52.4277 9.11753 56.017 10.6532 58.682 13.3182C61.347 15.9832 62.8827 19.5725 62.9699 23.3404C63.0571 27.1082 61.6892 30.7648 59.1504 33.5502C59.1261 33.5769 59.1012 33.6029 59.0757 33.6284L51.1221 41.5538C51.1211 41.5548 51.1202 41.5558 51.1192 41.5568C49.7636 42.9166 48.1531 43.9957 46.3798 44.7321C44.6053 45.4691 42.7027 45.8485 40.7813 45.8485C38.8598 45.8485 36.9572 45.4691 35.1827 44.7321C33.4081 43.9951 31.7966 42.9151 30.4404 41.5538C29.5634 40.6735 29.566 39.2489 30.4464 38.3719C31.3267 37.4948 32.7513 37.4975 33.6283 38.3778C34.5664 39.3194 35.6812 40.0665 36.9086 40.5763C38.1361 41.0861 39.4521 41.3485 40.7813 41.3485C42.1104 41.3485 43.4264 41.0861 44.6539 40.5763C45.8814 40.0665 46.9961 39.3194 47.9342 38.3778L47.94 38.372L55.8591 30.4808C57.5961 28.5556 58.5312 26.0381 58.4711 23.4445C58.4107 20.8338 57.3466 18.3467 55.5 16.5002C53.6535 14.6536 51.1664 13.5895 48.5557 13.5291C45.9615 13.469 43.4434 14.4045 41.518 16.1424Z" fill="url(#paint0_linear_4963_8876)"/>
<path fill-rule="evenodd" clip-rule="evenodd" d="M31.2188 30.6519C29.8896 30.6519 28.5736 30.9143 27.3461 31.4241C26.1187 31.9339 25.0039 32.681 24.0658 33.6226L24.0601 33.6284L16.1409 41.5196C14.4039 43.4448 13.4689 45.9623 13.5289 48.5559C13.5893 51.1666 14.6534 53.6537 16.5 55.5002C18.3465 57.3468 20.8336 58.4108 23.4443 58.4713C26.0386 58.5313 28.5567 57.5958 30.4821 55.858L36.0121 50.328C36.8908 49.4493 38.3154 49.4493 39.1941 50.328C40.0728 51.2066 40.0728 52.6313 39.1941 53.5099L33.6254 59.0787C33.6008 59.1032 33.5757 59.1272 33.55 59.1506C30.7646 61.6894 27.108 63.0573 23.3402 62.9701C19.5723 62.8829 15.983 61.3472 13.318 58.6822C10.653 56.0172 9.11734 52.4279 9.03011 48.66C8.94288 44.8922 10.3108 41.2356 12.8496 38.4502C12.8739 38.4235 12.8988 38.3975 12.9243 38.372L20.8779 30.4466C20.8789 30.4455 20.8799 30.4445 20.881 30.4435C22.2365 29.0837 23.847 28.0047 25.6202 27.2683C27.3947 26.5313 29.2973 26.1519 31.2188 26.1519C33.1402 26.1519 35.0428 26.5313 36.8174 27.2683C38.5919 28.0052 40.2034 29.0853 41.5596 30.4466C42.4366 31.3269 42.434 32.7515 41.5536 33.6285C40.6733 34.5056 39.2487 34.5029 38.3717 33.6226C37.4336 32.681 36.3189 31.9339 35.0914 31.4241C33.8639 30.9143 32.5479 30.6519 31.2188 30.6519Z" fill="url(#paint1_linear_4963_8876)"/>
<defs>
<linearGradient id="paint0_linear_4963_8876" x1="18.0755" y1="14.3631" x2="51.1982" y2="54.3308" gradientUnits="userSpaceOnUse">
<stop offset="0.134615" stop-color="#9CC4E8"/>
<stop offset="0.389423" stop-color="#99CCEE"/>
<stop offset="0.5625" stop-color="#99CCEE"/>
<stop offset="1" stop-color="#CBE6FE"/>
</linearGradient>
<linearGradient id="paint1_linear_4963_8876" x1="18.0755" y1="14.3631" x2="51.1982" y2="54.3308" gradientUnits="userSpaceOnUse">
<stop offset="0.134615" stop-color="#9CC4E8"/>
<stop offset="0.389423" stop-color="#99CCEE"/>
<stop offset="0.5625" stop-color="#99CCEE"/>
<stop offset="1" stop-color="#CBE6FE"/>
</linearGradient>
</defs>
</svg>
