<svg width="59" height="59" viewBox="0 0 59 59" fill="none" xmlns="http://www.w3.org/2000/svg">
<path fill-rule="evenodd" clip-rule="evenodd" d="M9 38.25C10.2426 38.25 11.25 39.2574 11.25 40.5V45L15.75 45C16.9926 45 18 46.0074 18 47.25C18 48.4926 16.9926 49.5 15.75 49.5L11.25 49.5V54C11.25 55.2426 10.2426 56.25 9 56.25C7.75736 56.25 6.75 55.2426 6.75 54V49.5H2.25C1.00736 49.5 2.68221e-07 48.4926 0 47.25C-2.68221e-07 46.0074 1.00736 45 2.25 45H6.75V40.5C6.75 39.2574 7.75736 38.25 9 38.25Z" fill="url(#paint0_linear_7902_604)"/>
<path fill-rule="evenodd" clip-rule="evenodd" d="M22.5 45C22.5 41.2721 25.5221 38.25 29.25 38.25H51.75C55.4779 38.25 58.5 41.2721 58.5 45V51.75C58.5 55.4779 55.4779 58.5 51.75 58.5H29.25C25.5221 58.5 22.5 55.4779 22.5 51.75V45ZM42.75 42.75H51.75C52.9926 42.75 54 43.7574 54 45V51.75C54 52.9926 52.9926 54 51.75 54H42.75V42.75ZM38.25 42.75H29.25C28.0074 42.75 27 43.7574 27 45V51.75C27 52.9926 28.0074 54 29.25 54H38.25V42.75Z" fill="url(#paint1_linear_7902_604)"/>
<path fill-rule="evenodd" clip-rule="evenodd" d="M0 6.75C0 3.02208 3.02208 0 6.75 0H51.75C55.4779 0 58.5 3.02208 58.5 6.75V24.75C58.5 28.4779 55.4779 31.5 51.75 31.5H6.75C3.02208 31.5 0 28.4779 0 24.75V6.75ZM40.5 4.5H51.75C52.9926 4.5 54 5.50736 54 6.75V13.5L40.5 13.5V4.5ZM36 4.5H22.5V13.5L36 13.5V4.5ZM36 18L22.5 18V27H36V18ZM40.5 27H51.75C52.9926 27 54 25.9926 54 24.75V18L40.5 18V27ZM18 4.5V13.5L4.5 13.5V6.75C4.5 5.50736 5.50736 4.5 6.75 4.5H18ZM18 18L4.5 18V24.75C4.5 25.9926 5.50736 27 6.75 27H18V18Z" fill="url(#paint2_linear_7902_604)"/>
<defs>
<linearGradient id="paint0_linear_7902_604" x1="9.8129" y1="5.7871" x2="45.7306" y2="49.1274" gradientUnits="userSpaceOnUse">
<stop offset="0.134615" stop-color="#333333"/>
<stop offset="0.389423" stop-color="#333333"/>
<stop offset="0.5625" stop-color="#333333"/>
<stop offset="1" stop-color="#666666"/>
</linearGradient>
<linearGradient id="paint1_linear_7902_604" x1="9.8129" y1="5.7871" x2="45.7306" y2="49.1274" gradientUnits="userSpaceOnUse">
<stop offset="0.134615" stop-color="#333333"/>
<stop offset="0.389423" stop-color="#333333"/>
<stop offset="0.5625" stop-color="#333333"/>
<stop offset="1" stop-color="#666666"/>
</linearGradient>
<linearGradient id="paint2_linear_7902_604" x1="9.8129" y1="5.7871" x2="45.7306" y2="49.1274" gradientUnits="userSpaceOnUse">
<stop offset="0.134615" stop-color="#333333"/>
<stop offset="0.389423" stop-color="#333333"/>
<stop offset="0.5625" stop-color="#333333"/>
<stop offset="1" stop-color="#666666"/>
</linearGradient>
</defs>
</svg>
