<svg width="30" height="24" viewBox="0 0 30 24" fill="none" xmlns="http://www.w3.org/2000/svg">
<path opacity="0.2" d="M28.9997 12L22.9997 17H6.9997L0.999702 12L6.9997 7.00003H22.9997L28.9997 12Z" fill="#99CCEE"/>
<path d="M7.6397 7.76878L2.5622 12L7.6397 16.2313C7.74351 16.3144 7.8297 16.4173 7.89323 16.5342C7.95676 16.651 7.99636 16.7793 8.0097 16.9116C8.02305 17.0439 8.00988 17.1775 7.97096 17.3047C7.93203 17.4318 7.86814 17.5499 7.78303 17.6521C7.69791 17.7542 7.59327 17.8384 7.47524 17.8996C7.3572 17.9609 7.22814 17.9979 7.09561 18.0087C6.96307 18.0194 6.82972 18.0036 6.70336 17.9622C6.577 17.9208 6.46017 17.8546 6.3597 17.7675L0.3597 12.7675C0.247115 12.6737 0.156538 12.5562 0.0943787 12.4235C0.0322199 12.2908 0 12.146 0 11.9994C0 11.8528 0.0322199 11.7081 0.0943787 11.5753C0.156538 11.4426 0.247115 11.3251 0.3597 11.2313L6.3597 6.23128C6.56359 6.06154 6.82655 5.97975 7.09074 6.0039C7.35493 6.02804 7.59871 6.15615 7.76845 6.36003C7.93819 6.56392 8.01998 6.82688 7.99584 7.09107C7.97169 7.35526 7.84359 7.59904 7.6397 7.76878ZM29.6397 11.2313L23.6397 6.23128C23.5387 6.14724 23.4222 6.0839 23.2968 6.04488C23.1714 6.00587 23.0395 5.99194 22.9087 6.0039C22.7778 6.01585 22.6507 6.05346 22.5344 6.11456C22.4181 6.17567 22.315 6.25908 22.231 6.36003C22.0612 6.56392 21.9794 6.82688 22.0036 7.09107C22.0277 7.35526 22.1558 7.59904 22.3597 7.76878L27.4372 12L22.3597 16.2313C22.2559 16.3144 22.1697 16.4173 22.1062 16.5342C22.0426 16.651 22.003 16.7793 21.9897 16.9116C21.9764 17.0439 21.9895 17.1775 22.0284 17.3047C22.0674 17.4318 22.1313 17.5499 22.2164 17.6521C22.3015 17.7542 22.4061 17.8384 22.5242 17.8996C22.6422 17.9609 22.7713 17.9979 22.9038 18.0087C23.0363 18.0194 23.1697 18.0036 23.296 17.9622C23.4224 17.9208 23.5392 17.8546 23.6397 17.7675L29.6397 12.7675C29.7523 12.6737 29.8429 12.5562 29.905 12.4235C29.9672 12.2908 29.9994 12.146 29.9994 11.9994C29.9994 11.8528 29.9672 11.7081 29.905 11.5753C29.8429 11.4426 29.7523 11.3251 29.6397 11.2313ZM19.341 0.0600331C19.2175 0.015216 19.0864 -0.00484767 18.9552 0.000987744C18.8241 0.00682316 18.6953 0.0384435 18.5763 0.094043C18.4573 0.149642 18.3505 0.228132 18.2618 0.325031C18.1732 0.421929 18.1045 0.535339 18.0597 0.658783L10.0597 22.6588C10.0147 22.7823 9.99448 22.9135 10.0002 23.0448C10.006 23.1761 10.0375 23.3051 10.0931 23.4242C10.1488 23.5433 10.2273 23.6503 10.3243 23.739C10.4213 23.8277 10.5349 23.8965 10.6584 23.9413C10.768 23.9802 10.8834 24.0001 10.9997 24C11.2051 24 11.4054 23.9368 11.5736 23.819C11.7418 23.7011 11.8696 23.5343 11.9397 23.3413L19.9397 1.34128C19.9845 1.21784 20.0046 1.08678 19.9987 0.955583C19.9929 0.824387 19.9613 0.695624 19.9057 0.576648C19.8501 0.457673 19.7716 0.350813 19.6747 0.262172C19.5778 0.173531 19.4644 0.104844 19.341 0.0600331Z" fill="#99CCEE"/>
</svg>
