<svg width="17" height="25" viewBox="0 0 17 25" fill="none" xmlns="http://www.w3.org/2000/svg">
<path opacity="0.2" d="M8 20C11.9 20 15 18.2 15 16C15 14.5 13.6 13.2 11.5 12.5H11.4C10.4 12.8 9.2 13 8 13C6.8 13 5.6 12.8 4.6 12.5H4.5C2.4 13.2 1 14.5 1 16C1 18.2 4.1 20 8 20Z" fill="#99CCEE"/>
<path fill-rule="evenodd" clip-rule="evenodd" d="M0 5C0 2.2 3.5 0 8 0C12.5 0 16 2.2 16 5V9C16 10.366 15.1669 11.5893 13.7911 12.4839C15.2534 13.3946 16.1 14.6179 16.1 16C16.0914 16.2412 16.0575 16.478 16 16.7092V20C16 22.8 12.5 25 8 25C3.5 25 0 22.8 0 20V16C0 14.6339 0.827093 13.423 2.25828 12.5157C0.853028 11.6184 0 10.3823 0 9V5ZM2 8.3426C3.45269 9.36479 5.58198 10 8 10C10.418 10 12.5473 9.36479 14 8.3426V9C14 10.4 11.5 12 8 12C4.5 12 2 10.4 2 9V8.3426ZM14 5C14 6.4 11.5 8 8 8C4.5 8 2 6.4 2 5C2 3.6 4.5 2 8 2C11.5 2 14 3.6 14 5ZM8 14C6.80647 14 5.68328 13.8452 4.67708 13.5656C3.0096 14.0839 2 15.042 2 16C2 17.4 4.5 19 8 19C11.5 19 14 17.4 14 16C14 15.0338 12.973 14.0675 11.3701 13.5523C10.3519 13.8404 9.21223 14 8 14ZM2 19.3426C3.45269 20.3648 5.58198 21 8 21C10.4095 21 12.5323 20.3692 14 19.3534V20C14 21.4 11.5 23 8 23C4.5 23 2 21.4 2 20V19.3426Z" fill="#99CCEE"/>
</svg>
