<svg width="349" height="79" viewBox="0 0 349 79" fill="none" xmlns="http://www.w3.org/2000/svg">
<path fill-rule="evenodd" clip-rule="evenodd" d="M215.869 24.6231H215.857V24.6111C215.618 24.5032 215.366 24.4552 215.114 24.4552C214.718 24.4552 214.322 24.5752 213.974 24.791C213.615 25.0069 213.339 25.3308 213.171 25.7146L205.267 47.0994L199.186 32.7789H199.174C199.006 32.3831 198.718 32.0592 198.347 31.8434C197.639 31.3876 196.727 31.3996 196.02 31.8434C195.66 32.0592 195.384 32.3831 195.204 32.7669L189.099 47.1114L181.172 25.7385C181.04 25.3428 180.764 25.0069 180.416 24.791C180.068 24.5752 179.672 24.4552 179.265 24.4552C179.001 24.4552 178.737 24.5152 178.485 24.6111H178.449C177.717 24.959 177.25 25.6906 177.25 26.4941C177.25 26.746 177.31 26.9859 177.406 27.2378L187.168 53.1802C187.252 53.3961 187.36 53.6 187.516 53.7679C187.648 53.9118 187.804 54.0198 187.972 54.1037C188.008 54.1277 188.056 54.1757 188.14 54.2237C188.224 54.2716 188.32 54.3076 188.416 54.3196C188.584 54.3796 188.836 54.4635 189.147 54.4635C189.543 54.4635 189.903 54.3196 190.239 54.1157C190.575 53.8998 190.827 53.588 190.97 53.2162H190.994L197.171 38.5958L203.36 53.1442C203.504 53.54 203.756 53.8279 204.044 54.0437C204.355 54.2716 204.691 54.4156 205.051 54.4635H205.303C205.543 54.4635 205.795 54.4156 205.987 54.3436C206.179 54.2716 206.346 54.1757 206.514 54.0437C206.85 53.7919 207.102 53.4561 207.27 53.0603L216.973 27.2258C217.381 26.1943 216.889 25.0309 215.869 24.6231ZM171.217 39.4354C171.217 36.389 170.041 33.6304 168.158 31.6395C166.263 29.6365 163.709 28.4251 160.926 28.4251C158.144 28.4251 155.577 29.6485 153.694 31.6395C151.715 33.7504 150.624 36.5449 150.624 39.4354C150.624 42.3259 151.715 45.0964 153.694 47.1953C155.589 49.1863 158.156 50.3857 160.938 50.3857C163.721 50.3857 166.287 49.1863 168.17 47.1953C170.149 45.0964 171.253 42.3259 171.241 39.4354H171.217ZM171.169 28.8569C173.879 31.7114 175.379 35.5014 175.367 39.4354C175.367 43.3693 173.867 47.1593 171.169 50.0139C168.578 52.7484 164.956 54.4755 160.926 54.4755C156.896 54.4755 153.31 52.7484 150.708 50.0139C145.094 44.0889 145.094 34.7938 150.708 28.8689C153.31 26.1343 156.944 24.4072 160.926 24.4072C164.956 24.4072 168.578 26.1343 171.169 28.8689V28.8569ZM130.054 24.4552C126.948 24.4552 123.961 25.6066 121.659 27.6935V26.5061C121.659 25.9784 121.455 25.4627 121.083 25.0789C120.711 24.6831 120.183 24.4672 119.644 24.4672C119.092 24.4672 118.552 24.6831 118.157 25.0789C117.785 25.4627 117.569 25.9784 117.569 26.5181V53.0603L117.653 53.1442C117.689 53.2522 117.725 53.3481 117.785 53.4321C118.073 53.9238 118.528 54.2956 119.104 54.4635L119.188 54.4875H119.632C119.932 54.4875 120.243 54.4156 120.519 54.2956C120.771 54.1757 120.987 53.9958 121.155 53.7679C121.155 53.7679 121.179 53.7199 121.203 53.6959C121.311 53.564 121.407 53.4081 121.479 53.2522C121.539 53.0962 121.575 52.9403 121.611 52.8324V52.7604L121.623 36.8208C121.671 34.6139 122.582 32.527 124.153 30.9798C125.713 29.4206 127.823 28.5571 130.018 28.5571C132.345 28.5571 134.42 29.4926 135.931 30.9798C137.442 32.479 138.354 34.5299 138.354 36.7968V52.4486C138.354 53.0243 138.594 53.552 138.978 53.9118C139.793 54.6794 141.065 54.6794 141.88 53.9118C142.276 53.528 142.504 53.0003 142.504 52.4486V36.7968C142.516 30.0443 136.939 24.4792 130.042 24.4672L130.054 24.4552ZM333.876 36.5329C332.7 31.8074 328.515 28.4491 323.729 28.4611C318.824 28.4611 314.698 31.7474 313.414 36.5329H333.876ZM338.397 38.4639V38.6678C338.397 39.2315 338.158 39.7472 337.762 40.083C337.366 40.4189 336.85 40.6108 336.334 40.5988H313.127C313.714 46.1998 318.236 50.3377 323.621 50.3737H325C326.787 50.3737 328.527 49.774 330.062 48.7665C331.597 47.747 332.892 46.4037 333.852 44.8206C334.032 44.5087 334.296 44.2569 334.619 44.0889C335.255 43.7531 336.023 43.7651 336.634 44.1249H336.658L336.67 44.1489C337.258 44.5567 337.618 45.2164 337.63 45.924C337.63 46.2838 337.534 46.6436 337.342 46.9794V46.9914C336.011 49.0903 334.248 50.8774 332.173 52.2327C330.062 53.588 327.627 54.4395 325.012 54.4395H323.621C319.699 54.4156 315.945 52.8084 313.211 49.9899C310.464 47.1833 308.929 43.3933 308.929 39.4594C308.929 35.2975 310.572 31.5195 313.247 28.785C316.005 25.9544 319.783 24.3593 323.729 24.3713C327.651 24.3713 331.177 25.9185 333.78 28.4371C336.382 30.9558 338.086 34.47 338.397 38.4159V38.4519V38.4639ZM243.215 12.0417C242.663 12.0417 242.148 12.2576 241.752 12.6414C241.368 13.0252 241.14 13.5409 241.14 14.0806V52.4246C241.14 52.9643 241.356 53.492 241.752 53.8638C242.136 54.2476 242.663 54.4635 243.215 54.4635C244.391 54.4635 245.338 53.552 245.338 52.4246V14.0686C245.338 12.9412 244.391 12.0177 243.215 12.0177V12.0417ZM108.01 38.7038C106.343 37.9242 104.448 37.3485 102.553 36.7248C100.814 36.1371 99.0505 35.6454 97.7912 34.9977C97.1555 34.6619 96.6638 34.3141 96.3399 33.9063C96.0161 33.5345 95.8362 33.0547 95.8482 32.551C95.8482 31.7954 96.0641 31.1957 96.4479 30.644C97.0116 29.8404 97.9591 29.2167 99.0025 28.8089C100.022 28.4012 101.137 28.2093 101.929 28.2093C104.28 28.2093 105.755 28.9888 106.894 29.7924C107.458 30.1882 107.926 30.608 108.382 30.9438C108.61 31.1237 108.825 31.2796 109.077 31.3996C109.317 31.5075 109.593 31.6035 109.893 31.6035C110.085 31.6035 110.277 31.5675 110.457 31.4955C110.636 31.4236 110.804 31.3156 110.96 31.1837C111.116 31.0398 111.236 30.8719 111.332 30.68C111.416 30.4881 111.452 30.2962 111.452 30.0923C111.452 29.7325 111.344 29.3846 111.164 29.0728C110.852 28.5091 110.373 27.9694 109.761 27.4297C108.741 26.5541 107.59 25.8345 106.355 25.2948C105.059 24.7191 103.668 24.3233 102.349 24.3233C99.2784 24.3233 96.7117 25.0069 94.8527 26.2783C93.8812 26.9379 93.0297 27.6695 92.43 28.665C91.8183 29.6725 91.4705 30.9078 91.4345 32.515V32.7309C91.4345 34.2901 91.9382 35.5854 92.7418 36.5929C93.9532 38.1161 95.7522 39.0156 97.5273 39.6633C99.2904 40.3109 101.053 40.6947 102.169 41.0545C103.74 41.5703 105.395 42.134 106.619 42.8656C107.23 43.2494 107.71 43.6572 108.046 44.1009C108.37 44.5567 108.55 45.0365 108.562 45.6361V45.6841C108.562 46.5597 108.298 47.2313 107.866 47.819C107.218 48.6945 106.151 49.3182 105.011 49.738C104.028 50.0858 102.984 50.2777 101.941 50.3017C99.2664 50.3017 97.4673 49.666 96.172 49.0184C95.5244 48.6945 94.9966 48.3827 94.5169 48.1069C94.289 47.9749 94.0611 47.867 93.8212 47.759C93.5814 47.6631 93.3295 47.6031 93.0776 47.6031C92.8977 47.6031 92.7178 47.6391 92.5619 47.6991C92.394 47.771 92.2381 47.867 92.1061 47.9869C91.9262 48.1548 91.7703 48.3587 91.6624 48.5746C91.5544 48.7905 91.5065 49.0304 91.5065 49.2702C91.5065 49.678 91.6504 50.0378 91.8783 50.3737C92.2141 50.8534 92.7178 51.2732 93.3295 51.705C93.9772 52.1247 94.7328 52.5445 95.6083 52.9523C97.5633 53.8638 100.058 54.3436 101.953 54.3676C104.903 54.3676 107.446 53.6959 109.593 52.1367C111.692 50.5776 112.999 48.2508 112.999 45.6242C112.999 44.1849 112.651 42.9615 112.064 41.9541C111.164 40.4429 109.701 39.4354 108.034 38.6558L108.01 38.7038ZM274.399 39.4354C274.399 36.365 273.223 33.6064 271.352 31.6155C269.481 29.6365 266.903 28.4251 264.096 28.4251C261.314 28.4251 258.747 29.6365 256.852 31.6155C254.873 33.7384 253.77 36.5329 253.782 39.4354C253.782 42.5058 254.969 45.2404 256.852 47.2193C258.735 49.1983 261.302 50.3857 264.096 50.3857C266.843 50.3857 269.469 49.2343 271.352 47.2313C273.331 45.1204 274.411 42.3379 274.399 39.4474V39.4354ZM277.925 24.9709C278.309 25.3428 278.549 25.8705 278.549 26.4342V52.4366C278.549 52.9763 278.333 53.492 277.937 53.8758C277.553 54.2596 277.025 54.4755 276.474 54.4755C275.922 54.4755 275.406 54.2596 275.011 53.8758C274.627 53.504 274.399 52.9763 274.399 52.4366V49.9059C271.796 52.6885 268.138 54.4875 264.096 54.4875C260.21 54.4875 256.504 52.8684 253.854 50.0378C251.143 47.1833 249.644 43.3933 249.656 39.4474C249.656 35.3455 251.251 31.5795 253.854 28.8569C256.516 26.0264 260.222 24.4192 264.096 24.4192C268.138 24.4192 271.796 26.1583 274.399 28.9289V26.4582C274.399 25.3308 275.298 24.4192 276.426 24.4192C276.438 24.4192 276.462 24.4192 276.474 24.4192C277.025 24.4192 277.541 24.6231 277.925 24.9829V24.9709ZM307.118 27.5976C307.514 27.2138 307.741 26.686 307.753 26.1223C307.753 25.5826 307.514 25.0549 307.118 24.6951H307.106C307.106 24.6831 307.106 24.6831 307.106 24.6831C306.722 24.2993 306.206 24.0834 305.666 24.0834C305.127 24.0834 304.599 24.3113 304.215 24.6951L288.048 40.2749V14.0926C288.048 12.9652 287.088 12.0417 285.925 12.0417C285.385 12.0417 284.857 12.2576 284.474 12.6414C284.09 13.0252 283.862 13.5409 283.862 14.0806V52.4246C283.862 52.9643 284.09 53.48 284.474 53.8638C284.857 54.2476 285.385 54.4635 285.925 54.4635C287.1 54.4635 288.048 53.552 288.048 52.4246V46.0919L293.313 40.8986L304.047 53.7079C304.251 54.0078 304.515 54.1997 304.791 54.3076C305.103 54.4156 305.403 54.4635 305.666 54.4635C306.146 54.4635 306.626 54.3196 307.022 54.0318H307.046L307.058 53.9838C307.478 53.576 307.729 53.0243 307.729 52.4366C307.729 51.9329 307.538 51.4531 307.214 51.0813L296.299 37.9482L307.106 27.6096H307.118V27.5976ZM234.688 12.1377H234.22C234.16 12.1377 234.1 12.1377 234.04 12.1496C233.98 12.1496 233.92 12.1377 233.86 12.1377C232.673 12.1377 231.509 12.2696 230.43 12.6294C229.35 12.9652 228.379 13.5889 227.623 14.4405C226.832 15.304 226.316 16.3475 225.992 17.5228C225.68 18.6982 225.548 20.0295 225.536 21.5527V24.4792H222.274C221.159 24.4792 220.259 25.3547 220.235 26.4702C220.235 27.0339 220.439 27.5736 220.835 27.9814C221.219 28.3772 221.746 28.617 222.298 28.641H225.536V52.4846V52.5445C225.536 53.1082 225.764 53.624 226.148 53.9838C226.532 54.3436 227.06 54.5595 227.635 54.5595C228.751 54.5595 229.65 53.648 229.65 52.5325V28.629H233.164C233.716 28.605 234.232 28.3772 234.628 27.9814C235.023 27.5856 235.239 27.0579 235.239 26.4941V26.4102C235.239 25.3308 234.316 24.4552 233.188 24.4552H229.65V21.5407C229.674 20.2454 229.806 19.2859 229.998 18.5783C230.19 17.8707 230.454 17.4269 230.682 17.151C230.958 16.8632 231.305 16.6593 231.689 16.5394C232.181 16.3834 232.853 16.2875 233.764 16.2875H233.872C233.872 16.2875 233.98 16.2755 234.04 16.2755C234.1 16.2755 234.16 16.2875 234.232 16.2875H234.688C235.851 16.2875 236.786 15.352 236.786 14.2006C236.786 13.0612 235.887 12.1257 234.748 12.1137C234.736 12.1137 234.724 12.1137 234.712 12.1137L234.688 12.1377ZM26.4525 40.7907C26.6084 40.2749 26.6923 39.7352 26.6683 39.2075C26.6084 37.5044 25.6729 35.9572 24.1856 35.1176L7.40642 25.5347C5.04365 24.1914 2.02123 24.9829 0.665942 27.3337C-0.701344 29.6725 0.102236 32.6469 2.47699 34.0022L11.8561 39.3634L2.47699 44.7126C0.150211 46.0199 -0.68935 48.9824 0.62996 51.3212C0.641954 51.3452 0.653948 51.3691 0.677935 51.3931C2.06921 53.7319 5.06764 54.5235 7.41841 53.1802L24.1976 43.5852C25.337 42.9495 26.1046 41.9301 26.4525 40.7907ZM30.9981 49.774C30.0026 49.69 28.9951 49.9179 28.1316 50.4096L11.3404 59.9806C9.00158 61.3 8.18601 64.2744 9.50532 66.6132C9.50532 66.6372 9.52931 66.6492 9.5413 66.6731C10.9326 69.0119 13.931 69.8035 16.2818 68.4482L25.6849 63.087V73.8094C25.6849 76.52 27.8917 78.7029 30.6263 78.7029C33.3608 78.7029 35.5677 76.508 35.5677 73.8094V54.6434C35.5677 52.0648 33.5647 49.9419 30.9981 49.774ZM48.1971 28.9289C49.1566 29.0128 50.1641 28.8089 51.0636 28.2932L67.8428 18.7102C70.1816 17.3909 70.9972 14.4285 69.6899 12.0897C69.6899 12.0657 69.6659 12.0537 69.6539 12.0297C68.2746 9.69093 65.2642 8.88735 62.9134 10.2426L53.5103 15.6158V4.89344C53.5103 2.19485 51.3035 0.0119937 48.5689 0.0119937C45.8343 0.0119937 43.6275 2.20685 43.6275 4.89344V24.0594C43.6275 26.6381 45.6304 28.749 48.1971 28.9409V28.9289ZM11.3404 18.7102L28.1316 28.2932C29.0311 28.8089 30.0386 29.0128 30.9981 28.9289C33.5647 28.749 35.5557 26.6261 35.5677 24.0474V4.88145C35.5677 2.18286 33.3489 0 30.6263 0C27.9037 0 25.6849 2.19485 25.6849 4.88145V15.6038L16.2818 10.2307C13.919 8.87536 10.9206 9.67894 9.5413 12.0177C8.18601 14.3325 8.9656 17.307 11.2684 18.6622C11.2924 18.6742 11.3164 18.6862 11.3404 18.6982V18.7102ZM42.8959 39.3154C42.8719 38.9916 42.7399 38.6798 42.5241 38.4399L40.5091 36.4489C40.2692 36.2331 39.9574 36.1011 39.6336 36.0891H39.5496C39.2258 36.1011 38.9259 36.2331 38.6861 36.4489L36.6711 38.4399C36.4552 38.6798 36.3353 38.9916 36.3233 39.3154V39.3994C36.3233 39.6753 36.4792 40.0591 36.6711 40.263L38.6861 42.2659C38.89 42.4578 39.2738 42.6257 39.5496 42.6257H39.6336C39.9574 42.6017 40.2692 42.4818 40.5091 42.2659L42.5241 40.263C42.7399 40.0231 42.8719 39.7232 42.8959 39.3994V39.3154ZM48.4729 41.2344L41.4926 48.1308C41.2527 48.3587 40.9409 48.4787 40.6171 48.5026H38.5661C38.2423 48.4787 37.9305 48.3587 37.6906 48.1308L30.7102 41.2344C30.4943 40.9946 30.3624 40.6947 30.3504 40.3709V38.344C30.3624 38.0201 30.4943 37.7083 30.7102 37.4684L37.6786 30.572C37.9185 30.3561 38.2303 30.2242 38.5541 30.2122H40.6051C40.9289 30.2242 41.2407 30.3561 41.4806 30.572L48.461 37.4684C48.6768 37.7083 48.8088 38.0201 48.8208 38.344V40.3709C48.8208 40.6468 48.6649 41.0305 48.461 41.2344H48.4729ZM67.8428 59.9806L51.0636 50.4096C50.2 49.9059 49.2046 49.69 48.1971 49.774C45.6304 49.9419 43.6395 52.0648 43.6275 54.6434V73.8214C43.6275 76.532 45.8343 78.7148 48.5689 78.7148C51.3035 78.7148 53.5103 76.52 53.5103 73.8214V63.099L62.9134 68.4602C65.2642 69.8155 68.2746 69.0239 69.6539 66.6731C71.0212 64.3344 70.2176 61.3359 67.8428 59.9806ZM76.7182 33.9902L67.3391 39.3514L76.7182 44.7006C79.045 46.0079 79.8725 48.9704 78.5652 51.3092C78.5532 51.3332 78.5412 51.3572 78.5172 51.3811C77.126 53.7199 74.1275 54.5115 71.7768 53.1682L54.9855 43.5732C53.9061 42.9615 53.1025 41.9661 52.7427 40.7787C52.5748 40.263 52.5028 39.7232 52.5148 39.1955C52.5268 38.8117 52.5868 38.4279 52.6828 38.0441C53.0186 36.8567 53.7982 35.7773 54.9736 35.1056L71.7648 25.5227C74.1275 24.1674 77.126 24.9709 78.5052 27.3217C79.8845 29.6605 79.081 32.6349 76.7062 33.9902H76.7182ZM348.964 24.4192C348.964 27.1058 347.153 29.3607 344.118 29.3607C341.084 29.3607 339.297 27.0938 339.297 24.4192C339.297 21.7446 341.096 19.4898 344.118 19.4898C347.153 19.4898 348.964 21.7326 348.964 24.4192ZM347.992 24.4192C347.992 22.1284 346.457 20.4013 344.094 20.4013C341.732 20.4013 340.256 22.0565 340.256 24.4192C340.256 26.782 341.78 28.4371 344.094 28.4371C346.409 28.4371 347.992 26.698 347.992 24.4192ZM342.211 22.2004H344.286C345.414 22.2004 346.169 22.8121 346.169 23.7716C346.169 24.3113 345.893 24.815 345.414 25.0909L346.229 26.2543V26.4822H345.054L344.262 25.3547H343.339V26.4822H342.199V22.2004H342.211ZM344.262 23.2438H343.339V24.3593H344.262C344.694 24.3593 344.97 24.1674 344.97 23.8076C344.97 23.4238 344.718 23.2319 344.262 23.2319V23.2438Z" fill="#2CB3EA"/>
</svg>
